<?xml version="1.0" encoding="UTF-8" standalone="no"?>
<svg
   xmlns:dc="http://purl.org/dc/elements/1.1/"
   xmlns:cc="http://creativecommons.org/ns#"
   xmlns:rdf="http://www.w3.org/1999/02/22-rdf-syntax-ns#"
   xmlns:svg="http://www.w3.org/2000/svg"
   xmlns="http://www.w3.org/2000/svg"
   xmlns:sodipodi="http://sodipodi.sourceforge.net/DTD/sodipodi-0.dtd"
   xmlns:inkscape="http://www.inkscape.org/namespaces/inkscape"
   width="116.39093mm"
   height="83.225891mm"
   viewBox="0 0 116.39093 83.225891"
   version="1.1"
   id="svg862"
   inkscape:version="1.0.1 (3bc2e813f5, 2020-09-07)"
   sodipodi:docname="aasrud_logo.svg">
  <defs
     id="defs856" />
  <sodipodi:namedview
     id="base"
     pagecolor="#ffffff"
     bordercolor="#666666"
     borderopacity="1.0"
     inkscape:pageopacity="0.0"
     inkscape:pageshadow="2"
     inkscape:zoom="0.35"
     inkscape:cx="239.71473"
     inkscape:cy="180.88793"
     inkscape:document-units="mm"
     inkscape:current-layer="layer1"
     inkscape:document-rotation="0"
     showgrid="false"
     inkscape:window-width="1343"
     inkscape:window-height="908"
     inkscape:window-x="288"
     inkscape:window-y="101"
     inkscape:window-maximized="0" />
  <metadata
     id="metadata859">
    <rdf:RDF>
      <cc:Work
         rdf:about="">
        <dc:format>image/svg+xml</dc:format>
        <dc:type
           rdf:resource="http://purl.org/dc/dcmitype/StillImage" />
        <dc:title />
      </cc:Work>
    </rdf:RDF>
  </metadata>
  <g
     inkscape:label="Layer 1"
     inkscape:groupmode="layer"
     id="layer1"
     transform="translate(-43.920716,-100.30674)">
    <g
       id="g1442"
       transform="matrix(2.430716,0,0,2.430716,-38.036483,-241.76642)">
      <rect
         style="fill:#000000;fill-opacity:1;stroke:none;stroke-width:0;stroke-linecap:butt;stroke-linejoin:bevel;stroke-miterlimit:4;stroke-dasharray:none;stroke-opacity:1;paint-order:stroke fill markers"
         id="rect901-5"
         width="46.772671"
         height="2.8229558"
         x="104.13567"
         y="176.15009"
         transform="matrix(1,0,-0.39345795,0.91934261,0,0)" />
      <path
         id="path851-1-0"
         style="font-style:normal;font-variant:normal;font-weight:normal;font-stretch:normal;font-size:50.8px;line-height:1.25;font-family:serif;-inkscape-font-specification:serif;fill:#000000;fill-opacity:1;stroke:none;stroke-width:0.264583"
         d="m 50.582948,140.72938 -10.566279,24.94318 c -3.251202,7.4168 -3.860953,8.22916 -6.299353,8.33076 v 0.96531 H 43.77561 v -0.96531 c -2.438389,0 -3.454561,-0.60936 -3.454561,-2.08256 0,-0.6096 0.152691,-1.32088 0.406691,-1.98128 l 2.33681,-5.9433 0.86351,-2.08308 5.842019,-13.96969 5.892668,13.96969 2.79414,6.95978 2.466461,6.09575 h 7.723103 0.17363 12.78062 v -0.96531 c -2.286,-0.1524 -2.79433,-0.66018 -4.57233,-4.41937 L 64.379526,140.72938 h -1.015957 l -5.781561,13.64775 -5.9831,-13.64775 z m 11.967749,7.21403 5.892664,13.96969 1.0573,2.62103 -0.004,0.003 1.74097,4.33617 c 0.6096,1.3716 0.96481,2.69221 0.96481,3.40341 0,1.24989 -0.84556,1.66118 -3.43856,1.72237 -2.23616,-0.15736 -2.75279,-0.68789 -4.515477,-4.41471 l -3.362597,-7.67034 h 0.0011 l -5.29e-4,-5e-4 h -5.29e-4 L 58.748,157.03734 Z"
         sodipodi:nodetypes="ccccccsccccccccccccccccccccccscccccccc" />
    </g>
  </g>
</svg>
